<svg width="6" height="12" viewBox="0 0 6 12" fill="none" xmlns="http://www.w3.org/2000/svg">
<path d="M0.669668 10.9601C0.503991 10.7649 0.503991 10.4483 0.669668 10.253L4.86945 5.30329C5.03512 5.10803 5.30374 5.10803 5.46942 5.30329C5.63509 5.49855 5.63509 5.81514 5.46942 6.0104L1.26964 10.9601C1.10396 11.1554 0.835344 11.1554 0.669668 10.9601Z" fill="white"/>
<path d="M5.46942 6.0104C5.30374 6.20566 5.03513 6.20565 4.86945 6.01039L0.669673 1.06065C0.503996 0.865384 0.503996 0.548801 0.669673 0.353539C0.835349 0.158277 1.10396 0.158277 1.26964 0.353539L5.46942 5.30329C5.63509 5.49855 5.63509 5.81514 5.46942 6.0104Z" fill="white"/>
</svg>
