<svg width="82" height="34" viewBox="0 0 82 34" fill="none" xmlns="http://www.w3.org/2000/svg">
<g clip-path="url(#clip0)">
<path d="M30.7779 21.4582C29.5061 21.1375 28.4333 20.0053 28.1736 18.7091C28.0687 18.1859 28.0812 17.3963 28.2023 16.9062C28.3641 16.2502 28.6205 15.7751 29.0934 15.2534C29.8543 14.4146 30.8906 14.0185 32.1186 14.0979C33.1048 14.1613 33.8603 14.4823 34.4663 15.095L34.7708 15.4026L34.3471 15.8129C34.1452 16.0096 33.9403 16.203 33.7324 16.3929L33.5411 16.5627L33.3044 16.3307C32.9457 15.979 32.5655 15.8064 32.067 15.7691C30.8042 15.6747 29.9678 16.5027 29.9754 17.8387C29.9823 18.9704 30.5172 19.6951 31.4829 19.8811C32.1821 20.0155 32.7593 19.8455 33.2869 19.3494L33.5512 19.1012L34.7812 20.2706L34.431 20.597C34.0022 20.9965 33.4375 21.3172 32.9113 21.4596C32.4209 21.5924 31.3074 21.5916 30.7779 21.4582ZM54.1591 21.5213C53.4326 21.4201 52.1392 20.955 52.1392 20.7949C52.1392 20.7667 52.2748 20.4395 52.4407 20.0676L52.7425 19.3914L53.001 19.5285C53.6357 19.8651 54.1613 19.9877 54.9789 19.9891C55.6742 19.9908 55.7866 19.974 55.9552 19.8432C56.1056 19.7267 56.1457 19.6399 56.1457 19.4304C56.1457 19.048 55.9744 18.9493 54.764 18.6349C54.1892 18.4853 53.5349 18.2667 53.3102 18.1487C52.5612 17.7552 52.2305 17.1672 52.2885 16.3312C52.3901 14.8607 53.6376 14.0453 55.6026 14.1641C56.5932 14.2244 57.7335 14.5841 57.724 14.8334C57.7171 15.016 57.2158 16.1399 57.1491 16.1226C57.1158 16.114 56.8157 16.006 56.4825 15.8826C55.4375 15.4959 54.4016 15.5894 54.2198 16.0873C54.1356 16.317 54.2198 16.5402 54.4516 16.6977C54.5415 16.7592 55.0497 16.9201 55.581 17.0557C56.7564 17.3557 57.2899 17.6076 57.6502 18.0335C58.439 18.9658 58.0449 20.5143 56.858 21.144C56.7093 21.2228 56.4125 21.3354 56.1985 21.394C55.7981 21.5034 54.5776 21.5796 54.1594 21.5213H54.1591ZM62.2061 21.4343C60.9613 21.0567 60.0227 20.0889 59.7168 18.8672C59.5834 18.3346 59.5851 17.3949 59.7201 16.849C60.1561 15.0905 61.7411 13.9759 63.6329 14.0979C64.6371 14.1627 65.3904 14.4931 65.977 15.1257L66.2462 15.4163L65.0523 16.5834L64.7768 16.3079C64.0683 15.6 62.8244 15.5687 62.0905 16.2406C61.6594 16.6352 61.476 17.1055 61.4755 17.8194C61.4738 18.7264 61.822 19.3815 62.4841 19.7181C62.8011 19.8796 62.9493 19.9109 63.3768 19.9081C63.9786 19.9038 64.3753 19.75 64.7913 19.3588L65.0643 19.1023L65.6381 19.6516C65.9535 19.9538 66.2118 20.2379 66.2121 20.2831C66.2131 20.4065 65.6225 20.9075 65.2024 21.1401C64.9987 21.2526 64.6459 21.3951 64.4184 21.4559C63.8576 21.6066 62.7369 21.5953 62.2058 21.4343H62.2061ZM40.3613 20.5134L39.7282 19.5356H38.6713V21.4269H36.7183V14.2821H38.659C40.2476 14.2821 40.666 14.3026 40.9653 14.395C41.8277 14.6611 42.3905 15.1209 42.7007 15.8126C42.8549 16.1567 42.8784 16.3 42.879 16.9087C42.88 17.4956 42.8544 17.6684 42.7215 17.9738C42.5723 18.3167 42.0868 18.866 41.7083 19.1196L41.547 19.2277L42.218 20.2748C42.587 20.8506 42.9115 21.361 42.9388 21.4093C42.9779 21.4778 42.7718 21.4963 41.9917 21.494L40.9943 21.4912L40.3613 20.5134ZM40.4479 17.8223C40.947 17.5692 41.0919 16.83 40.7554 16.2545C40.5537 15.9096 40.2779 15.8232 39.3806 15.8232H38.6037V18.0096L39.3951 17.982C39.9947 17.9616 40.2498 17.9229 40.4479 17.8223ZM79.4143 20.516L78.7785 19.5356H77.7268V21.4269H75.7741V14.2821H77.7147C79.3031 14.2821 79.7216 14.3026 80.0211 14.395C80.8644 14.6554 81.4493 15.1354 81.7606 15.8232C81.9115 16.157 81.935 16.3017 81.9353 16.9087C81.9353 17.5322 81.9151 17.6525 81.7494 18.0034C81.5758 18.3713 81.1366 18.8686 80.764 19.1193L80.6028 19.228L81.2735 20.2748C81.6425 20.8506 81.967 21.361 81.9946 21.4093C82.0337 21.4778 81.8268 21.4969 81.0472 21.4966H80.0501L79.4143 20.516ZM79.4706 17.8194C79.8361 17.5956 79.9779 17.3446 79.9779 16.9218C79.9779 16.4652 79.7975 16.1149 79.4753 15.946C79.2927 15.8499 79.0699 15.8234 78.4508 15.8232H77.6595V18.0096L78.4508 17.9846C79.0915 17.9644 79.2856 17.9329 79.4704 17.8197L79.4706 17.8194ZM6.22824 20.7801L6.21457 20.0986L3.08299 20.0582L4.65083 20.042C5.90352 20.0292 6.22523 20.0448 6.25284 20.1188C6.27197 20.1699 6.27716 20.4932 6.26459 20.837L6.2419 21.4619L6.22824 20.7801ZM45.0006 17.8544V14.2821H50.3205V15.8232H46.8136L46.833 16.4362L46.8524 17.0492L49.9165 17.0867V18.5524L46.8524 18.5902V19.9209L50.4549 19.9584V21.4269H45.0006V17.8544ZM68.165 17.8544V14.2821H73.5521V15.8232H70.0505V17.0841H73.0807V18.555H70.0505V19.9558H73.6194V21.4269H68.165V17.8544ZM2.20149 19.6581L2.07302 19.5006L2.22472 19.6343C2.36686 19.7594 2.40676 19.8157 2.35319 19.8157C2.34034 19.8157 2.27201 19.7446 2.20149 19.6581ZM1.70812 18.3039C1.7114 18.2223 1.72726 18.2058 1.74885 18.2615C1.76826 18.3121 1.7658 18.3724 1.74338 18.3957C1.72124 18.4191 1.70512 18.3778 1.70812 18.3039ZM1.70812 16.9733C1.7114 16.8914 1.72726 16.8749 1.74885 16.9306C1.76826 16.9812 1.7658 17.0415 1.74338 17.0651C1.72124 17.0881 1.70512 17.0469 1.70812 16.973V16.9733ZM6.23917 14.1073C6.23917 13.7217 6.25065 13.573 6.26432 13.7766C6.27798 13.9802 6.27798 14.2955 6.26404 14.4772C6.25038 14.6588 6.23917 14.4922 6.23944 14.107L6.23917 14.1073ZM2.7006 13.4635C2.74925 13.4434 2.8072 13.4456 2.82961 13.4692C2.85202 13.4923 2.81239 13.509 2.74132 13.5059C2.66288 13.5025 2.64702 13.486 2.7006 13.4633V13.4635ZM6.93863 13.4596C7.17014 13.4459 7.54898 13.4459 7.7805 13.4596C8.01201 13.4732 7.82259 13.4843 7.35956 13.4843C6.89654 13.4843 6.70712 13.4729 6.93863 13.4596ZM11.9218 13.4596C12.2471 13.4463 12.5728 13.4463 12.8981 13.4596C13.1668 13.4726 12.947 13.4834 12.4099 13.4834C11.8728 13.4834 11.6534 13.4726 11.9218 13.4593V13.4596ZM17.1096 13.4596C17.3787 13.4458 17.6483 13.4458 17.9173 13.4596C18.1289 13.4738 17.9384 13.4849 17.4939 13.4846C17.0495 13.4846 16.8762 13.4732 17.1094 13.4593L17.1096 13.4596ZM19.5674 13.4596C19.8189 13.4459 20.2128 13.4459 20.4429 13.4596C20.6725 13.4732 20.467 13.4843 19.9854 13.484C19.504 13.484 19.3157 13.4726 19.5672 13.4593L19.5674 13.4596Z" fill="#A4A8AB"/>
<path d="M24.0588 16.8038V8.25806H25.0018V25.3495H24.0588V16.8038Z" fill="#26A8E0"/>
<path d="M2.51054 21.3473C1.97098 21.2552 1.24965 20.8748 0.874093 20.4841C0.499626 20.0946 0.262373 19.6422 0.108759 19.0266C-0.037474 18.4381 -0.0361073 16.8225 0.112039 16.1032C0.380726 14.7967 1.10424 13.9582 2.27493 13.5966C2.52175 13.5201 3.09192 13.484 4.41294 13.4601L6.21421 13.428V14.7575L4.68217 14.7888C3.46092 14.8144 3.08919 14.8445 2.84811 14.9395C2.05325 15.2516 1.70557 16.0768 1.70366 17.6545C1.70229 18.6155 1.85645 19.2538 2.18336 19.6411C2.51874 20.0386 2.82897 20.096 4.64391 20.096H6.21421V21.4266L4.54769 21.4187C3.63093 21.4141 2.71445 21.382 2.51054 21.3473ZM7.85913 17.6619C7.20422 15.5911 6.64416 13.8101 6.61437 13.7043L6.55997 13.5119L8.20052 13.5133L8.96121 16.1916C9.25039 17.2085 9.53876 18.2256 9.82631 19.243C9.88371 19.448 9.94603 19.5996 9.96489 19.5799C9.98402 19.56 10.3238 18.1947 10.7201 16.5453L11.4412 13.5465L12.3883 13.5272C13.2476 13.5096 13.3386 13.5192 13.3687 13.6324C13.867 15.4919 14.9967 19.5151 15.0319 19.5549C15.0582 19.5851 15.4439 18.2453 15.8886 16.578L16.6976 13.5465L17.4881 13.5266C18.1414 13.5104 18.2748 13.5244 18.2562 13.6063C18.2442 13.6606 17.7341 15.443 17.1229 17.5675L16.0118 21.43L14.0723 21.3922L13.261 18.433C12.8147 16.8052 12.4293 15.4973 12.4047 15.526C12.3801 15.5547 12.0504 16.8945 11.6721 18.5029L10.9841 21.4275H9.05004L7.85913 17.6619ZM19.2107 17.4694V13.5116H20.8269V21.4272H19.2107V17.4694Z" fill="#30343E"/>
</g>
<defs>
<clipPath id="clip0">
<rect width="82" height="17.0914" fill="white" transform="translate(0 8.25806)"/>
</clipPath>
</defs>
</svg>
