<svg width="46" height="27" viewBox="0 0 46 27" fill="none" xmlns="http://www.w3.org/2000/svg">
<path d="M3.0799 0.34V7.55C3.0799 7.802 3.1359 7.984 3.2479 8.096C3.36924 8.208 3.56524 8.264 3.8359 8.264H7.1539L7.2519 9.888C6.30924 9.99067 4.94657 10.042 3.1639 10.042C2.41724 10.042 1.8619 9.85533 1.4979 9.482C1.1339 9.10867 0.951904 8.60933 0.951904 7.984V0.34H3.0799Z" fill="#515070"/>
<path d="M8.86836 1.236C9.47502 0.517334 10.553 0.158001 12.1024 0.158001C13.6517 0.158001 14.7297 0.517334 15.3364 1.236C15.943 1.94533 16.2464 3.25667 16.2464 5.17C16.2464 7.08333 15.943 8.39933 15.3364 9.118C14.7297 9.82733 13.6517 10.182 12.1024 10.182C10.553 10.182 9.47502 9.82733 8.86836 9.118C8.27102 8.39933 7.97236 7.08333 7.97236 5.17C7.97236 3.25667 8.27102 1.94533 8.86836 1.236ZM13.5864 2.566C13.325 2.10867 12.8304 1.88 12.1024 1.88C11.3744 1.88 10.875 2.10867 10.6044 2.566C10.343 3.02333 10.2124 3.89133 10.2124 5.17C10.2124 6.44867 10.343 7.31667 10.6044 7.774C10.875 8.23133 11.3744 8.46 12.1024 8.46C12.8304 8.46 13.325 8.23133 13.5864 7.774C13.857 7.31667 13.9924 6.44867 13.9924 5.17C13.9924 3.89133 13.857 3.02333 13.5864 2.566Z" fill="#515070"/>
<path d="M25.4807 10H23.2267L22.4987 7.046C22.4053 6.738 22.2793 6.528 22.1207 6.416C21.9713 6.29467 21.752 6.234 21.4627 6.234L19.9647 6.22V10H17.8647V0.34C18.7327 0.256 19.96 0.214 21.5467 0.214C22.844 0.214 23.7633 0.419333 24.3047 0.83C24.846 1.24067 25.1167 1.98733 25.1167 3.07C25.1167 3.77933 24.972 4.33467 24.6827 4.736C24.4027 5.13733 23.9313 5.38 23.2687 5.464V5.534C24.006 5.702 24.4633 6.18733 24.6407 6.99L25.4807 10ZM19.9647 4.582H21.5047C22.0647 4.582 22.4473 4.48867 22.6527 4.302C22.858 4.106 22.9607 3.742 22.9607 3.21C22.9607 2.678 22.858 2.31867 22.6527 2.132C22.4567 1.94533 22.074 1.852 21.5047 1.852L19.9647 1.866V4.582Z" fill="#515070"/>
<path d="M33.2868 8.334L33.3848 9.902C32.5074 9.99533 31.0141 10.042 28.9048 10.042C28.2608 10.042 27.7474 9.86933 27.3648 9.524C26.9821 9.16933 26.7861 8.69333 26.7768 8.096V2.244C26.7861 1.64667 26.9821 1.17533 27.3648 0.83C27.7474 0.475334 28.2608 0.298001 28.9048 0.298001C31.0141 0.298001 32.5074 0.344667 33.3848 0.438001L33.2868 2.02H29.5768C29.3434 2.02 29.1754 2.076 29.0728 2.188C28.9701 2.3 28.9188 2.482 28.9188 2.734V4.204H32.7688V5.744H28.9188V7.606C28.9188 7.86733 28.9701 8.054 29.0728 8.166C29.1754 8.278 29.3434 8.334 29.5768 8.334H33.2868Z" fill="#515070"/>
<path d="M42.6832 0.34H44.7412C45.2545 0.34 45.5205 0.606 45.5392 1.138L45.9172 10H43.9012L43.5792 2.006H43.3412L41.8852 7.984C41.7918 8.44133 41.5025 8.67 41.0172 8.67H39.6172C39.1318 8.67 38.8425 8.44133 38.7492 7.984L37.2792 2.006H37.0412L36.7612 10H34.7452L35.0952 1.138C35.1232 0.606 35.3892 0.34 35.8932 0.34H37.9512C38.4085 0.34 38.6885 0.568667 38.7912 1.026L39.9672 5.842C40.0418 6.15 40.1258 6.60267 40.2192 7.2H40.4012C40.4105 7.15333 40.4432 6.962 40.4992 6.626C40.5645 6.29 40.6158 6.02867 40.6532 5.842L41.8152 1.026C41.9272 0.568667 42.2165 0.34 42.6832 0.34Z" fill="#515070"/>
<path d="M3.1079 26H0.979904V16.34H3.1079V26Z" fill="#515070"/>
<path d="M5.06779 26V16.34C5.93579 16.256 7.15846 16.214 8.7358 16.214C10.0891 16.214 11.0131 16.4333 11.5078 16.872C12.0118 17.3107 12.2638 18.1413 12.2638 19.364C12.2638 20.5867 12.0258 21.422 11.5498 21.87C11.0831 22.3087 10.2385 22.528 9.0158 22.528C8.3998 22.528 7.79313 22.4907 7.1958 22.416V26H5.06779ZM7.1958 20.89H8.69379C9.24446 20.8807 9.61779 20.7733 9.8138 20.568C10.0191 20.3627 10.1218 19.9613 10.1218 19.364C10.1218 18.7667 10.0191 18.3653 9.8138 18.16C9.61779 17.9547 9.24446 17.852 8.69379 17.852L7.1958 17.866V20.89Z" fill="#515070"/>
<path d="M17.2374 22.346L15.2914 21.66C14.5727 21.3987 14.0594 21.044 13.7514 20.596C13.4434 20.148 13.2894 19.56 13.2894 18.832C13.2894 17.768 13.5461 17.0587 14.0594 16.704C14.5821 16.34 15.4967 16.158 16.8034 16.158C18.0354 16.158 19.0947 16.284 19.9814 16.536L19.8414 17.992C19.0294 17.964 18.0214 17.95 16.8174 17.95C16.2574 17.95 15.8841 18.0013 15.6974 18.104C15.5107 18.1973 15.4174 18.44 15.4174 18.832C15.4174 19.1493 15.4874 19.378 15.6274 19.518C15.7674 19.658 16.0334 19.7933 16.4254 19.924L18.2594 20.554C19.0061 20.8153 19.5334 21.1747 19.8414 21.632C20.1494 22.08 20.3034 22.668 20.3034 23.396C20.3034 24.4787 20.0421 25.216 19.5194 25.608C18.9967 25.9907 18.0634 26.182 16.7194 26.182C15.6274 26.182 14.5214 26.0607 13.4014 25.818L13.5274 24.278C15.5154 24.3247 16.5794 24.348 16.7194 24.348C17.2887 24.348 17.6667 24.2873 17.8534 24.166C18.0494 24.0447 18.1474 23.7927 18.1474 23.41C18.1474 23.0833 18.0821 22.8547 17.9514 22.724C17.8207 22.584 17.5827 22.458 17.2374 22.346Z" fill="#515070"/>
<path d="M29.4738 16.34V22.15C29.4738 23.6247 29.1892 24.6653 28.6198 25.272C28.0598 25.8787 27.0892 26.182 25.7078 26.182C24.2518 26.182 23.2252 25.8787 22.6278 25.272C22.0398 24.6653 21.7458 23.6247 21.7458 22.15V16.34H23.8738V22.15C23.8738 23.0367 23.9952 23.6433 24.2378 23.97C24.4898 24.2967 24.9472 24.46 25.6098 24.46C26.2632 24.46 26.7112 24.2967 26.9538 23.97C27.2058 23.6433 27.3318 23.0367 27.3318 22.15V16.34H29.4738Z" fill="#515070"/>
<path d="M39.1011 16.34H41.1591C41.6725 16.34 41.9385 16.606 41.9571 17.138L42.3351 26H40.3191L39.9971 18.006H39.7591L38.3031 23.984C38.2098 24.4413 37.9205 24.67 37.4351 24.67H36.0351C35.5498 24.67 35.2605 24.4413 35.1671 23.984L33.6971 18.006H33.4591L33.1791 26H31.1631L31.5131 17.138C31.5411 16.606 31.8071 16.34 32.3111 16.34H34.3691C34.8265 16.34 35.1065 16.5687 35.2091 17.026L36.3851 21.842C36.4598 22.15 36.5438 22.6027 36.6371 23.2H36.8191C36.8285 23.1533 36.8611 22.962 36.9171 22.626C36.9825 22.29 37.0338 22.0287 37.0711 21.842L38.2331 17.026C38.3451 16.5687 38.6345 16.34 39.1011 16.34Z" fill="#515070"/>
</svg>
