<svg width="90" height="35" viewBox="0 0 90 35" fill="none" xmlns="http://www.w3.org/2000/svg">
<rect width="34" height="34.1828" fill="#515070"/>
<path d="M18.3924 24.618V21.654C18.3924 21.2518 18.7166 20.9261 19.1164 20.9261C20.5429 20.9261 21.319 19.4552 21.4267 16.5516H19.1164C18.7167 16.5516 18.3924 16.2254 18.3924 15.8237V9.56504C18.3924 9.16302 18.7166 8.83728 19.1164 8.83728H25.2759C25.6756 8.83728 26 9.16338 26 9.56504V15.8238C26 17.2155 25.8603 18.4927 25.5859 19.6206C25.3041 20.7769 24.8715 21.7878 24.3003 22.6256C23.713 23.4865 22.9776 24.162 22.116 24.6325C21.2478 25.1059 20.2386 25.3462 19.1161 25.3462C18.7167 25.3459 18.3924 25.0199 18.3924 24.618ZM9.05468 20.9258C8.65496 20.9258 8.33081 21.2518 8.33081 21.6534V24.6181C8.33081 25.0199 8.65496 25.3457 9.05468 25.3457C10.1767 25.3457 11.1864 25.1053 12.054 24.6319C12.9161 24.1615 13.6513 23.4865 14.2386 22.625C14.8101 21.7873 15.2427 20.7763 15.5245 19.6195C15.799 18.4915 15.9385 17.2143 15.9385 15.8232V9.56443C15.9385 9.16241 15.614 8.83667 15.2144 8.83667H9.05468C8.65496 8.83667 8.33081 9.16272 8.33081 9.56443V15.8232C8.33081 16.2251 8.65496 16.5511 9.05468 16.5511H11.3325C11.2261 19.4549 10.4613 20.9258 9.05468 20.9258Z" fill="white"/>
<path d="M47.08 5.36877V12.6175C47.08 12.8709 47.136 13.0539 47.248 13.1665C47.3694 13.2791 47.5654 13.3354 47.836 13.3354H51.154L51.252 14.9681C50.3094 15.0713 48.9467 15.1229 47.164 15.1229C46.4174 15.1229 45.862 14.9353 45.498 14.5599C45.134 14.1846 44.952 13.6826 44.952 13.0539V5.36877H47.08Z" fill="#515070"/>
<path d="M52.8685 6.26959C53.4751 5.54706 54.5531 5.18579 56.1025 5.18579C57.6518 5.18579 58.7298 5.54706 59.3365 6.26959C59.9431 6.98273 60.2465 8.30112 60.2465 10.2247C60.2465 12.1484 59.9431 13.4714 59.3365 14.194C58.7298 14.9071 57.6518 15.2637 56.1025 15.2637C54.5531 15.2637 53.4751 14.9071 52.8685 14.194C52.2711 13.4714 51.9725 12.1484 51.9725 10.2247C51.9725 8.30112 52.2711 6.98273 52.8685 6.26959ZM57.5865 7.60674C57.3251 7.14694 56.8305 6.91705 56.1025 6.91705C55.3745 6.91705 54.8751 7.14694 54.6045 7.60674C54.3431 8.06653 54.2125 8.9392 54.2125 10.2247C54.2125 11.5103 54.3431 12.3829 54.6045 12.8427C54.8751 13.3025 55.3745 13.5324 56.1025 13.5324C56.8305 13.5324 57.3251 13.3025 57.5865 12.8427C57.8571 12.3829 57.9925 11.5103 57.9925 10.2247C57.9925 8.9392 57.8571 8.06653 57.5865 7.60674Z" fill="#515070"/>
<path d="M69.4808 15.0807H67.2268L66.4988 12.1108C66.4055 11.8012 66.2795 11.59 66.1208 11.4774C65.9715 11.3554 65.7521 11.2945 65.4628 11.2945L63.9648 11.2804V15.0807H61.8648V5.36877C62.7328 5.28432 63.9601 5.24209 65.5468 5.24209C66.8441 5.24209 67.7635 5.44853 68.3048 5.8614C68.8461 6.27428 69.1168 7.02496 69.1168 8.11345C69.1168 8.82659 68.9721 9.38491 68.6828 9.7884C68.4028 10.1919 67.9315 10.4359 67.2688 10.5203V10.5907C68.0061 10.7596 68.4635 11.2475 68.6408 12.0545L69.4808 15.0807ZM63.9648 9.63358H65.5048C66.0648 9.63358 66.4475 9.53974 66.6528 9.35207C66.8581 9.15502 66.9608 8.78906 66.9608 8.2542C66.9608 7.71934 66.8581 7.35807 66.6528 7.1704C66.4568 6.98273 66.0741 6.8889 65.5048 6.8889L63.9648 6.90297V9.63358Z" fill="#515070"/>
<path d="M77.2869 13.4057L77.3849 14.9822C76.5076 15.076 75.0142 15.1229 72.9049 15.1229C72.2609 15.1229 71.7476 14.9493 71.3649 14.6021C70.9822 14.2456 70.7862 13.767 70.7769 13.1665V7.28301C70.7862 6.68246 70.9822 6.20859 71.3649 5.8614C71.7476 5.50483 72.2609 5.32654 72.9049 5.32654C75.0142 5.32654 76.5076 5.37346 77.3849 5.4673L77.2869 7.0578H73.5769C73.3436 7.0578 73.1756 7.1141 73.0729 7.2267C72.9702 7.33931 72.9189 7.52229 72.9189 7.77564V9.25354H76.7689V10.8018H72.9189V12.6738C72.9189 12.9366 72.9702 13.1242 73.0729 13.2368C73.1756 13.3494 73.3436 13.4057 73.5769 13.4057H77.2869Z" fill="#515070"/>
<path d="M86.6833 5.36877H88.7413C89.2546 5.36877 89.5206 5.6362 89.5393 6.17106L89.9173 15.0807H87.9013L87.5793 7.04373H87.3413L85.8853 13.0539C85.792 13.5137 85.5026 13.7436 85.0173 13.7436H83.6173C83.132 13.7436 82.8426 13.5137 82.7493 13.0539L81.2793 7.04373H81.0413L80.7613 15.0807H78.7453L79.0953 6.17106C79.1233 5.6362 79.3893 5.36877 79.8933 5.36877H81.9513C82.4086 5.36877 82.6886 5.59866 82.7913 6.05846L83.9673 10.9004C84.042 11.21 84.126 11.6651 84.2193 12.2657H84.4013C84.4106 12.2187 84.4433 12.0264 84.4993 11.6886C84.5646 11.3508 84.616 11.088 84.6533 10.9004L85.8153 6.05846C85.9273 5.59866 86.2166 5.36877 86.6833 5.36877Z" fill="#515070"/>
<path d="M47.108 31.1667H44.98V21.4548H47.108V31.1667Z" fill="#515070"/>
<path d="M49.0679 31.1667V21.4548C49.9359 21.3703 51.1586 21.3281 52.7359 21.3281C54.0893 21.3281 55.0133 21.5486 55.5079 21.9897C56.0119 22.4307 56.2639 23.2658 56.2639 24.4951C56.2639 25.7243 56.0259 26.5641 55.5499 27.0145C55.0833 27.4555 54.2386 27.6761 53.0159 27.6761C52.3999 27.6761 51.7933 27.6385 51.1959 27.5635V31.1667H49.0679ZM51.1959 26.0293H52.6939C53.2446 26.0199 53.6179 25.912 53.8139 25.7055C54.0193 25.4991 54.1219 25.0956 54.1219 24.4951C54.1219 23.8945 54.0193 23.491 53.8139 23.2846C53.6179 23.0781 53.2446 22.9749 52.6939 22.9749L51.1959 22.989V26.0293Z" fill="#515070"/>
<path d="M61.2375 27.4931L59.2915 26.8034C58.5729 26.5407 58.0595 26.1841 57.7515 25.7337C57.4435 25.2833 57.2895 24.6921 57.2895 23.9602C57.2895 22.8905 57.5462 22.1773 58.0595 21.8207C58.5822 21.4548 59.4969 21.2718 60.8035 21.2718C62.0355 21.2718 63.0949 21.3985 63.9815 21.6518L63.8415 23.1157C63.0295 23.0875 62.0215 23.0734 60.8175 23.0734C60.2575 23.0734 59.8842 23.1251 59.6975 23.2283C59.5109 23.3221 59.4175 23.5661 59.4175 23.9602C59.4175 24.2792 59.4875 24.5091 59.6275 24.6499C59.7675 24.7906 60.0335 24.9267 60.4255 25.0581L62.2595 25.6914C63.0062 25.9542 63.5335 26.3154 63.8415 26.7752C64.1495 27.2257 64.3035 27.8168 64.3035 28.5487C64.3035 29.6372 64.0422 30.3785 63.5195 30.7726C62.9969 31.1573 62.0635 31.3497 60.7195 31.3497C59.6275 31.3497 58.5215 31.2277 57.4015 30.9837L57.5275 29.4355C59.5155 29.4824 60.5795 29.5058 60.7195 29.5058C61.2889 29.5058 61.6669 29.4449 61.8535 29.3229C62.0495 29.2009 62.1475 28.9475 62.1475 28.5628C62.1475 28.2344 62.0822 28.0045 61.9515 27.8731C61.8209 27.7324 61.5829 27.6057 61.2375 27.4931Z" fill="#515070"/>
<path d="M73.474 21.4548V27.296C73.474 28.7786 73.1893 29.8249 72.62 30.4348C72.06 31.0447 71.0893 31.3497 69.708 31.3497C68.252 31.3497 67.2253 31.0447 66.628 30.4348C66.04 29.8249 65.746 28.7786 65.746 27.296V21.4548H67.874V27.296C67.874 28.1875 67.9953 28.7974 68.238 29.1258C68.49 29.4542 68.9473 29.6184 69.61 29.6184C70.2633 29.6184 70.7113 29.4542 70.954 29.1258C71.206 28.7974 71.332 28.1875 71.332 27.296V21.4548H73.474Z" fill="#515070"/>
<path d="M83.1013 21.4548H85.1593C85.6726 21.4548 85.9386 21.7222 85.9573 22.2571L86.3353 31.1667H84.3193L83.9973 23.1297H83.7593L82.3033 29.1399C82.2099 29.5997 81.9206 29.8296 81.4353 29.8296H80.0353C79.5499 29.8296 79.2606 29.5997 79.1673 29.1399L77.6973 23.1297H77.4593L77.1793 31.1667H75.1633L75.5133 22.2571C75.5413 21.7222 75.8073 21.4548 76.3113 21.4548H78.3693C78.8266 21.4548 79.1066 21.6847 79.2093 22.1445L80.3853 26.9864C80.4599 27.296 80.5439 27.7511 80.6373 28.3517H80.8193C80.8286 28.3048 80.8613 28.1124 80.9173 27.7746C80.9826 27.4368 81.0339 27.174 81.0713 26.9864L82.2333 22.1445C82.3453 21.6847 82.6346 21.4548 83.1013 21.4548Z" fill="#515070"/>
</svg>
